<?xml version="1.0" encoding="UTF-8" standalone="no" ?>
<!DOCTYPE svg PUBLIC "-//W3C//DTD SVG 1.1//EN" "http://www.w3.org/Graphics/SVG/1.1/DTD/svg11.dtd">
<svg xmlns="http://www.w3.org/2000/svg" xmlns:xlink="http://www.w3.org/1999/xlink" version="1.1" width="640" height="480" viewBox="0 0 640 480" xml:space="preserve">
<desc>Created with Fabric.js 3.6.6</desc>
<defs>
</defs>
<g transform="matrix(1 0 0 1 95.67 44.67)"  >
<g style=""   >
		<g transform="matrix(1 0 0 1 0 0)"  >
<circle style="stroke: none; stroke-width: 1; stroke-dasharray: none; stroke-linecap: butt; stroke-dashoffset: 0; stroke-linejoin: miter; stroke-miterlimit: 4; fill: rgb(190,9,11); fill-opacity: 0.8; fill-rule: nonzero; opacity: 1;"  cx="0" cy="0" r="3" />
</g>
</g>
</g>
<g transform="matrix(1 0 0 1 95.67 44.67)"  >
<g style=""   >
		<g transform="matrix(1 0 0 1 0 0)"  >
<circle style="stroke: none; stroke-width: 1; stroke-dasharray: none; stroke-linecap: butt; stroke-dashoffset: 0; stroke-linejoin: miter; stroke-miterlimit: 4; fill: rgb(190,9,11); fill-opacity: 0.75; fill-rule: nonzero; opacity: 1;"  cx="0" cy="0" r="3" />
</g>
</g>
</g>
<g transform="matrix(1 0 0 1 95.67 44.33)"  >
<g style=""   >
		<g transform="matrix(1 0 0 1 0 0)"  >
<circle style="stroke: none; stroke-width: 1; stroke-dasharray: none; stroke-linecap: butt; stroke-dashoffset: 0; stroke-linejoin: miter; stroke-miterlimit: 4; fill: rgb(190,9,11); fill-opacity: 0.15; fill-rule: nonzero; opacity: 1;"  cx="0" cy="0" r="7" />
</g>
</g>
</g>
<g transform="matrix(1 0 0 1 95.67 44.33)"  >
<g style=""   >
		<g transform="matrix(1 0 0 1 0 0)"  >
<circle style="stroke: none; stroke-width: 1; stroke-dasharray: none; stroke-linecap: butt; stroke-dashoffset: 0; stroke-linejoin: miter; stroke-miterlimit: 4; fill: rgb(190,9,11); fill-opacity: 0.39; fill-rule: nonzero; opacity: 1;"  cx="0" cy="0" r="4.5" />
</g>
</g>
</g>
<g transform="matrix(1 0 0 1 95.67 44.33)"  >
<g style=""   >
		<g transform="matrix(1 0 0 1 0 0)"  >
<circle style="stroke: none; stroke-width: 1; stroke-dasharray: none; stroke-linecap: butt; stroke-dashoffset: 0; stroke-linejoin: miter; stroke-miterlimit: 4; fill: rgb(190,9,11); fill-opacity: 0.98; fill-rule: nonzero; opacity: 1;"  cx="0" cy="0" r="6.5" />
</g>
</g>
</g>
<g transform="matrix(1 0 0 1 95.67 44.33)"  >
<g style=""   >
		<g transform="matrix(1 0 0 1 0 0)"  >
<circle style="stroke: none; stroke-width: 1; stroke-dasharray: none; stroke-linecap: butt; stroke-dashoffset: 0; stroke-linejoin: miter; stroke-miterlimit: 4; fill: rgb(190,9,11); fill-opacity: 0.23; fill-rule: nonzero; opacity: 1;"  cx="0" cy="0" r="7.5" />
</g>
</g>
</g>
<g transform="matrix(1 0 0 1 95.67 44.33)"  >
<g style=""   >
		<g transform="matrix(1 0 0 1 0 0)"  >
<circle style="stroke: none; stroke-width: 1; stroke-dasharray: none; stroke-linecap: butt; stroke-dashoffset: 0; stroke-linejoin: miter; stroke-miterlimit: 4; fill: rgb(190,9,11); fill-opacity: 0.47; fill-rule: nonzero; opacity: 1;"  cx="0" cy="0" r="6.5" />
</g>
</g>
</g>
<g transform="matrix(1 0 0 1 95.67 44.33)"  >
<g style=""   >
		<g transform="matrix(1 0 0 1 0 0)"  >
<circle style="stroke: none; stroke-width: 1; stroke-dasharray: none; stroke-linecap: butt; stroke-dashoffset: 0; stroke-linejoin: miter; stroke-miterlimit: 4; fill: rgb(190,9,11); fill-opacity: 0.89; fill-rule: nonzero; opacity: 1;"  cx="0" cy="0" r="3.5" />
</g>
</g>
</g>
<g transform="matrix(1 0 0 1 95.67 44.33)"  >
<g style=""   >
		<g transform="matrix(1 0 0 1 0 0)"  >
<circle style="stroke: none; stroke-width: 1; stroke-dasharray: none; stroke-linecap: butt; stroke-dashoffset: 0; stroke-linejoin: miter; stroke-miterlimit: 4; fill: rgb(190,9,11); fill-opacity: 0.2; fill-rule: nonzero; opacity: 1;"  cx="0" cy="0" r="7.5" />
</g>
</g>
</g>
</svg>